<?xml version="1.0" encoding="UTF-8" standalone="no"?>
<!DOCTYPE svg PUBLIC "-//W3C//DTD SVG 1.1//EN"
 "http://www.w3.org/Graphics/SVG/1.1/DTD/svg11.dtd">
<!-- Generated by graphviz version 2.36.0 (20140111.2315)
 -->
<!-- Title: G Pages: 1 -->
<svg width="730pt" height="105pt"
 viewBox="0.00 0.00 730.00 105.00" xmlns="http://www.w3.org/2000/svg" xmlns:xlink="http://www.w3.org/1999/xlink">
<g id="graph0" class="graph" transform="scale(1 1) rotate(0) translate(4 101)">
<title>G</title>
<polygon fill="white" stroke="none" points="-4,4 -4,-101 726,-101 726,4 -4,4"/>
<!-- ClientAPI -->
<g id="node1" class="node"><title>ClientAPI</title>
<polygon fill="none" stroke="black" points="195.5,-97 0.5,-97 0.5,1 195.5,1 195.5,-97"/>
<text text-anchor="middle" x="98" y="-81.8" font-family="Times,serif" font-size="14.00">Send(const Protobuf_1 &amp;msg)</text>
<text text-anchor="middle" x="98" y="-66.8" font-family="Times,serif" font-size="14.00">...</text>
<text text-anchor="middle" x="98" y="-51.8" font-family="Times,serif" font-size="14.00">Send(const Protobuf_n&#45;1 &amp;msg)</text>
<text text-anchor="middle" x="98" y="-36.8" font-family="Times,serif" font-size="14.00">Recv(const Protobuf_n &amp;msg)</text>
<text text-anchor="middle" x="98" y="-21.8" font-family="Times,serif" font-size="14.00">...</text>
<text text-anchor="middle" x="98" y="-6.8" font-family="Times,serif" font-size="14.00">Recv(const Protobuf_m &amp;msg)</text>
</g>
<!-- client -->
<g id="node2" class="node"><title>client</title>
<ellipse fill="none" stroke="black" cx="265" cy="-48" rx="30.5947" ry="18"/>
<text text-anchor="middle" x="265" y="-44.3" font-family="Times,serif" font-size="14.00">client</text>
</g>
<!-- ClientAPI&#45;&gt;client -->
<g id="edge1" class="edge"><title>ClientAPI&#45;&gt;client</title>
<path fill="none" stroke="black" d="M195.936,-41.3427C206.322,-41.4773 216.393,-41.7586 225.463,-42.1865"/>
<polygon fill="black" stroke="black" points="225.429,-45.69 235.609,-42.7562 225.821,-38.701 225.429,-45.69"/>
</g>
<!-- client&#45;&gt;ClientAPI -->
<g id="edge2" class="edge"><title>client&#45;&gt;ClientAPI</title>
<path fill="none" stroke="black" d="M235.609,-53.2438C226.895,-53.8219 216.739,-54.2335 205.972,-54.4788"/>
<polygon fill="black" stroke="black" points="205.872,-50.9799 195.936,-54.6573 205.996,-57.9788 205.872,-50.9799"/>
</g>
<!-- server -->
<g id="node3" class="node"><title>server</title>
<ellipse fill="none" stroke="black" cx="417" cy="-48" rx="32.4942" ry="18"/>
<text text-anchor="middle" x="417" y="-44.3" font-family="Times,serif" font-size="14.00">server</text>
</g>
<!-- client&#45;&gt;server -->
<g id="edge3" class="edge"><title>client&#45;&gt;server</title>
<path fill="none" stroke="black" d="M295.635,-48C318.047,-48 349.117,-48 374.076,-48"/>
<polygon fill="black" stroke="black" points="374.355,-51.5001 384.355,-48 374.355,-44.5001 374.355,-51.5001"/>
<text text-anchor="middle" x="340" y="-66.8" font-family="Times,serif" font-size="14.00">protobuf</text>
<text text-anchor="middle" x="340" y="-51.8" font-family="Times,serif" font-size="14.00">messages</text>
</g>
<!-- server&#45;&gt;client -->
<g id="edge4" class="edge"><title>server&#45;&gt;client</title>
<path fill="none" stroke="black" d="M384.533,-46.5494C378.388,-46.3203 371.993,-46.1198 366,-46 342.894,-45.5381 337.106,-45.5188 314,-46 311.317,-46.0559 308.551,-46.1293 305.764,-46.2149"/>
<polygon fill="black" stroke="black" points="305.567,-42.7196 295.696,-46.5693 305.813,-49.7153 305.567,-42.7196"/>
</g>
<!-- ServerAPI -->
<g id="node4" class="node"><title>ServerAPI</title>
<polygon fill="none" stroke="black" points="721.5,-97 488.5,-97 488.5,1 721.5,1 721.5,-97"/>
<text text-anchor="middle" x="605" y="-81.8" font-family="Times,serif" font-size="14.00">Send(const Protobuf_n &amp;msg[, int id])</text>
<text text-anchor="middle" x="605" y="-66.8" font-family="Times,serif" font-size="14.00">...</text>
<text text-anchor="middle" x="605" y="-51.8" font-family="Times,serif" font-size="14.00">Send(const Protobuf_m &amp;msg[, int id])</text>
<text text-anchor="middle" x="605" y="-36.8" font-family="Times,serif" font-size="14.00">Recv(const Protobuf_1 &amp;msg, int id)</text>
<text text-anchor="middle" x="605" y="-21.8" font-family="Times,serif" font-size="14.00">...</text>
<text text-anchor="middle" x="605" y="-6.8" font-family="Times,serif" font-size="14.00">Recv(const Protobuf_n&#45;1 &amp;msg, int id)</text>
</g>
<!-- server&#45;&gt;ServerAPI -->
<g id="edge6" class="edge"><title>server&#45;&gt;ServerAPI</title>
<path fill="none" stroke="black" d="M448.298,-42.8593C457.046,-42.3165 467.18,-41.911 477.999,-41.6429"/>
<polygon fill="black" stroke="black" points="478.18,-45.14 488.106,-41.4352 478.037,-38.1414 478.18,-45.14"/>
</g>
<!-- ServerAPI&#45;&gt;server -->
<g id="edge5" class="edge"><title>ServerAPI&#45;&gt;server</title>
<path fill="none" stroke="black" d="M488.106,-54.5648C477.618,-54.392 467.545,-54.0981 458.465,-53.6833"/>
<polygon fill="black" stroke="black" points="458.47,-50.1787 448.298,-53.1407 458.097,-57.1687 458.47,-50.1787"/>
</g>
</g>
</svg>
